# xmcd
#
# Track frame offsets:
#	192
#	11337
#	22372
#	36587
#	48565
#	60397
#	71630
#	88500
#	98247
#	109857
#
# Disc length: 1599 seconds
#
# Revision: 4
# Processed by: cddbd v1.5.2PL0 Copyright (c) Steve Scherf et al.
# Submitted via: EZCDAudioConverter 6.0.2.1
#
DISCID=86063d0a
DTITLE=Conway Twitty - #1"s
DYEAR=1991
DGENRE=Country
TTITLE0=It's Only Make Believe
TTITLE1=As Soon As I Hang Up The Phone
TTITLE2=You've Never Been This Far Before
TTITLE3=She Needs Someone To Hold Her
TTITLE4=I Can't See Me Without You 
TTITLE5=Hello Darlin
TTITLE6=Don't Cry Joni
TTITLE7=I'll Try
TTITLE8=To See An Angel Cry
TTITLE9=(I Can't Believe) She Gives It All To Me 
EXTD=
EXTT0=
EXTT1=
EXTT2=
EXTT3=
EXTT4=
EXTT5=
EXTT6=
EXTT7=
EXTT8=
EXTT9=
PLAYORDER=
